<svg width="266" height="49" viewBox="0 0 266 49" fill="none" xmlns="http://www.w3.org/2000/svg">
<path d="M48.416 0.680014L31.484 48.416H16.932L5.25266e-07 0.680014H12.376L24.208 36.72L36.108 0.680014H48.416ZM79.314 0.680014V48.416H67.686V0.680014H79.314ZM131.867 39.984H114.051L111.195 48.416H99.0229L116.295 0.680014H129.759L147.031 48.416H134.723L131.867 39.984ZM128.875 31.008L122.959 13.532L117.111 31.008H128.875Z" fill="#0A2F5C"/>
<path d="M198.386 15.776C197.524 14.1893 196.278 12.988 194.646 12.172C193.059 11.3107 191.178 10.88 189.002 10.88C185.239 10.88 182.224 12.1267 179.958 14.62C177.691 17.068 176.558 20.3547 176.558 24.48C176.558 28.8773 177.736 32.3227 180.094 34.816C182.496 37.264 185.783 38.488 189.954 38.488C192.81 38.488 195.212 37.7627 197.162 36.312C199.156 34.8613 200.607 32.776 201.514 30.056H186.758V21.488H212.054V32.3C211.192 35.2013 209.719 37.8987 207.634 40.392C205.594 42.8853 202.987 44.9027 199.814 46.444C196.64 47.9853 193.059 48.756 189.07 48.756C184.355 48.756 180.139 47.736 176.422 45.696C172.75 43.6107 169.871 40.732 167.786 37.06C165.746 33.388 164.726 29.1947 164.726 24.48C164.726 19.7653 165.746 15.572 167.786 11.9C169.871 8.18268 172.75 5.30401 176.422 3.26401C180.094 1.17868 184.287 0.136013 189.002 0.136013C194.714 0.136013 199.519 1.51868 203.418 4.28401C207.362 7.04935 209.968 10.88 211.238 15.776H198.386ZM241.071 48.892C236.583 48.892 232.457 47.8493 228.695 45.764C224.977 43.6787 222.008 40.7773 219.787 37.06C217.611 33.2973 216.523 29.0813 216.523 24.412C216.523 19.7427 217.611 15.5493 219.787 11.832C222.008 8.11468 224.977 5.21335 228.695 3.12802C232.457 1.04268 236.583 1.4782e-05 241.071 1.4782e-05C245.559 1.4782e-05 249.661 1.04268 253.379 3.12802C257.141 5.21335 260.088 8.11468 262.219 11.832C264.395 15.5493 265.483 19.7427 265.483 24.412C265.483 29.0813 264.395 33.2973 262.219 37.06C260.043 40.7773 257.096 43.6787 253.379 45.764C249.661 47.8493 245.559 48.892 241.071 48.892ZM241.071 38.284C244.879 38.284 247.916 37.0147 250.183 34.476C252.495 31.9373 253.651 28.5827 253.651 24.412C253.651 20.196 252.495 16.8413 250.183 14.348C247.916 11.8093 244.879 10.54 241.071 10.54C237.217 10.54 234.135 11.7867 231.823 14.28C229.556 16.7733 228.423 20.1507 228.423 24.412C228.423 28.628 229.556 32.0053 231.823 34.544C234.135 37.0373 237.217 38.284 241.071 38.284Z" fill="#4CAF50"/>
</svg>
